PathFileType	4	(X/Y/Z)	/Users/itak/Documents/Research/Walk-IL/dataset/trc/00237_00009.trc
DataRate	CameraRate	NumFrames	NumMarkers	Units	OrigDataRate	OrigDataStartFrame	OrigNumFrames
100.000000	100.000000	4	53	mm	100.000000	711	948
Frame#	Time	RPSI			LPSI			L3			STRN			T10			C7			CLAV			RBAK			LBAK			LSHO			LUPA			LAEL			LAOL			LWTS			LWPS			LFRA			LIFD			LHPS			LHTS			RSHO			RUPA			RAEL			RAOL			RWTS			RWPS			RFRA			RIFD			RHTS			RHPS			RBHD			LFHD			RFHD			LBHD			LHIP			RHIP			RASI			LASI			LKNE			LTHI			LANK			LTIP			LTOE			LMT1			LMT5			LHEE			RKNE			RTHI			RANK			RTIP			RTOE			RMT1			RMT5			RHEE			
		X1	Y1	Z1	X2	Y2	Z2	X3	Y3	Z3	X4	Y4	Z4	X5	Y5	Z5	X6	Y6	Z6	X7	Y7	Z7	X8	Y8	Z8	X9	Y9	Z9	X10	Y10	Z10	X11	Y11	Z11	X12	Y12	Z12	X13	Y13	Z13	X14	Y14	Z14	X15	Y15	Z15	X16	Y16	Z16	X17	Y17	Z17	X18	Y18	Z18	X19	Y19	Z19	X20	Y20	Z20	X21	Y21	Z21	X22	Y22	Z22	X23	Y23	Z23	X24	Y24	Z24	X25	Y25	Z25	X26	Y26	Z26	X27	Y27	Z27	X28	Y28	Z28	X29	Y29	Z29	X30	Y30	Z30	X31	Y31	Z31	X32	Y32	Z32	X33	Y33	Z33	X34	Y34	Z34	X35	Y35	Z35	X36	Y36	Z36	X37	Y37	Z37	X38	Y38	Z38	X39	Y39	Z39	X40	Y40	Z40	X41	Y41	Z41	X42	Y42	Z42	X43	Y43	Z43	X44	Y44	Z44	X45	Y45	Z45	X46	Y46	Z46	X47	Y47	Z47	X48	Y48	Z48	X49	Y49	Z49	X50	Y50	Z50	X51	Y51	Z51	X52	Y52	Z52	X53	Y53	Z53	

712	7.11	794.2108154296875	1035.86572265625	76.03116607666016	902.7886352539062	1043.697387695312	127.3494415283203	866.5370483398438	1126.22802734375	104.5109176635742	772.9732666015625	1301.856811523438	340.4129028320312	865.046142578125	1253.018920898438	104.6133651733398	850.2135620117188	1512.270751953125	173.6193389892578	784.4899291992188	1419.995971679688	320.5248107910156	808.7667846679688	1379.826904296875	67.63433074951172	958.4943237304688	1469.27001953125	194.5145111083984	976.1246337890625	1465.340209960938	297.9262084960938	1061.304809570312	1349.165161132812	299.3633117675781	1090.201538085938	1141.578491210938	329.5965576171875	1071.563110351562	1119.035888671875	247.1329040527344	1002.243225097656	920.3693237304688	422.9044494628906	1084.013916015625	901.3485717773438	425.2247619628906	1094.5166015625	1037.67578125	365.6629943847656	1003.108032226562	727.5188598632812	454.1887512207031	1072.8642578125	816.083740234375	451.729736328125	1008.044189453125	825.0992431640625	473.197509765625	670.63671875	1475.3603515625	161.1749420166016	615.3204345703125	1413.878051757812	113.6835708618164	580.2715454101562	1135.965576171875	64.17679595947266	675.5965576171875	1126.911376953125	64.98350524902344	565.4530639648438	941.7144775390625	231.5576934814453	525.326171875	917.2542114257812	160.1341857910156	556.3735961914062	1068.737426757812	89.55564117431641	558.04736328125	753.031982421875	274.0805969238281	530.643310546875	827.285400390625	278.1655578613281	505.7675170898438	817.4572143554688	210.1806030273438	788.786376953125	1680.071044921875	224.4722900390625	761.1790161132812	1668.749633789062	449.3121643066406	676.0643310546875	1668.820190429688	395.9162292480469	877.46533203125	1674.095703125	332.5652160644531	987.8777465820312	986.1087646484375	279.2059020996094	655.8350830078125	996.4594116210938	119.6462097167969	650.4136352539062	1042.719604492188	223.6224517822266	901.76708984375	1025.377807617188	349.8259887695312	909.75048828125	510.4353332519531	362.5221557617188	944.8143310546875	651.7178955078125	347.1218872070312	930.0499877929688	24.63352203369141	304.8973693847656	930.3240966796875	279.7478332519531	334.4464721679688	773.0250244140625	39.87336730957031	462.1748962402344	770.4683227539062	38.10650634765625	381.990478515625	879.7821655273438	26.75582122802734	423.9697875976562	914.8616943359375	35.05570983886719	225.8773345947266	631.6370849609375	507.6172180175781	217.3960571289062	616.7468872070312	776.2949829101562	189.0329437255859	786.5235595703125	150.1211090087891	-76.32448577880859	660.43701171875	399.599365234375	183.3900146484375	723.6295776367188	43.92198944091797	92.04370880126953	788.9320678710938	61.29248046875	71.55791473388672	713.507568359375	91.70597839355469	-15.31527042388916	864.524658203125	178.5535888671875	-88.84700012207031	
713	7.12	794.9472045898438	1036.589965820312	80.47947692871094	903.0569458007812	1044.3515625	132.7041931152344	867.2488403320312	1126.967041015625	109.8844833374023	771.6038818359375	1302.3310546875	345.2334289550781	865.9583129882812	1253.7841796875	110.2780151367188	850.4829711914062	1512.877563476562	179.5214385986328	783.2854614257812	1420.516845703125	325.6326904296875	810.02294921875	1380.647338867188	72.98552703857422	958.6014404296875	1469.899536132812	201.4420166015625	975.09228515625	1465.916137695312	305.0035095214844	1060.239868164062	1349.832763671875	307.7451171875	1088.611694335938	1142.395629882812	339.630126953125	1070.99267578125	1119.302124023438	257.1193542480469	999.525146484375	921.645751953125	432.9171447753906	1081.292846679688	902.8767700195312	436.859619140625	1092.482177734375	1038.757568359375	376.4335021972656	1000.573425292969	729.0487670898438	465.7995910644531	1069.959106445312	817.7594604492188	463.697998046875	1004.797241210938	826.7127685546875	484.2509765625	671.0563354492188	1476.118896484375	165.2373046875	616.2506103515625	1414.680419921875	117.114631652832	581.7786865234375	1136.7001953125	67.20886993408203	677.3074340820312	1127.945434570312	68.72967529296875	565.1829223632812	943.0265502929688	234.9844055175781	525.8128662109375	918.3247680664062	163.2263336181641	557.6153564453125	1069.567016601562	92.47040557861328	556.912353515625	754.3533935546875	278.3463745117188	529.8028564453125	828.7865600585938	281.6000671386719	505.699951171875	818.7147827148438	213.3984527587891	788.5167236328125	1680.653076171875	229.9186859130859	758.642333984375	1669.07470703125	454.4148864746094	674.1700439453125	1669.142333984375	400.2556762695312	876.1404418945312	1674.586303710938	338.8499755859375	987.0480346679688	986.576416015625	285.1337890625	656.2096557617188	997.4218139648438	123.0655822753906	650.1952514648438	1043.508056640625	227.0582275390625	900.4010620117188	1025.8046875	355.47705078125	910.1202392578125	510.0469055175781	363.9417724609375	944.5465698242188	651.6868286132812	350.0629272460938	930.0779418945312	24.57916641235352	304.8772277832031	930.6923828125	279.7127990722656	334.8853759765625	773.0149536132812	39.93335723876953	462.1422729492188	770.5316162109375	38.21770095825195	381.97314453125	879.7872314453125	26.74865913391113	423.955810546875	914.91845703125	35.07403182983398	225.8607940673828	629.6408081054688	508.9042053222656	224.3821563720703	615.88671875	777.5471801757812	192.9622802734375	785.5562744140625	142.5949096679688	-58.81908798217773	658.0053100585938	399.9450073242188	192.6161193847656	720.3131713867188	43.92529296875	112.9426727294922	785.9730224609375	59.65945816040039	92.48773956298828	711.6425170898438	87.13020324707031	3.7077476978302	863.8806762695312	170.0939788818359	-71.74288177490234	
714	7.13	795.641357421875	1037.27587890625	84.87505340576172	903.274169921875	1044.955444335938	137.9934844970703	867.8941650390625	1127.65625	115.1986846923828	770.1644897460938	1302.735107421875	349.9902038574219	866.7835693359375	1254.485717773438	115.8699493408203	850.6594848632812	1513.4345703125	185.3636779785156	782.0314331054688	1420.956298828125	330.6890869140625	811.1870727539062	1381.404663085938	78.287841796875	958.6187744140625	1470.467895507812	208.3335113525391	973.9495849609375	1466.437866210938	312.0281066894531	1059.060546875	1350.449340820312	316.0679626464844	1086.915161132812	1143.164916992188	349.5037231445312	1070.278198242188	1119.538330078125	266.9554443359375	996.6618041992188	922.79931640625	442.6046752929688	1078.441040039062	904.347412109375	448.2691040039062	1090.3388671875	1039.78466796875	387.0186157226562	997.8331298828125	730.5402221679688	477.2293395996094	1066.912963867188	819.3834228515625	475.4455261230469	1001.447570800781	828.2987670898438	495.1273193359375	671.3897094726562	1476.804565429688	169.2828979492188	617.088623046875	1415.41943359375	120.5391616821289	583.1716918945312	1137.392944335938	70.17817687988281	678.8917236328125	1128.94580078125	72.35631561279297	564.9163208007812	944.2030029296875	238.25830078125	526.2577514648438	919.2909545898438	166.1813049316406	558.778076171875	1070.333862304688	95.32962036132812	555.9580688476562	755.513671875	282.3095397949219	529.0597534179688	830.1000366210938	284.8099365234375	505.6714782714844	819.8154907226562	216.4229278564453	788.192138671875	1681.158325195312	235.2941131591797	756.0811157226562	1669.360717773438	459.43896484375	672.1985473632812	1669.438598632812	404.5025939941406	874.7483520507812	1675.013793945312	345.0431213378906	986.156005859375	987.01953125	291.0151672363281	656.5642700195312	998.279296875	126.3852767944336	649.9509887695312	1044.193481445312	230.3764801025391	898.9437255859375	1026.1640625	361.0106201171875	910.539306640625	509.6597595214844	365.2498474121094	944.3080444335938	651.6456909179688	352.9104309082031	930.1029663085938	24.52514839172363	304.8530883789062	931.08251953125	279.6751708984375	335.2314147949219	773.025146484375	40.00138473510742	462.1225891113281	770.6082763671875	38.32947158813477	381.9643859863281	879.8046875	26.74345588684082	423.9411315917969	914.9757690429688	35.10570526123047	225.8371276855469	627.6282348632812	510.1359558105469	231.2285461425781	614.978271484375	778.7128295898438	196.6783294677734	784.030029296875	134.6927032470703	-40.85375213623047	655.505859375	400.1521606445312	201.7984161376953	716.6338500976562	43.98163604736328	134.2134246826172	782.6087036132812	58.09243774414062	113.7923889160156	709.3229370117188	82.33540344238281	23.22239875793457	862.6383666992188	161.2464904785156	-54.24773025512695	
715	7.140000000000001	796.3064575195312	1037.91357421875	89.21297454833984	903.440673828125	1045.519653320312	143.2434234619141	868.4735107421875	1128.297607421875	120.4534301757812	768.6502685546875	1303.063110351562	354.6887512207031	867.5108642578125	1255.120239257812	121.3900833129883	850.7395629882812	1513.937744140625	191.1488342285156	780.71875	1421.309448242188	335.6941833496094	812.260009765625	1382.09814453125	83.53947448730469	958.53857421875	1470.969360351562	215.1879272460938	972.6948852539062	1466.892578125	319.0011291503906	1057.762573242188	1351.001953125	324.3264465332031	1085.128173828125	1143.873168945312	359.2142028808594	1069.441040039062	1119.735595703125	276.6365661621094	993.654052734375	923.8432006835938	452.02392578125	1075.457153320312	905.744384765625	459.4456787109375	1088.095092773438	1040.739990234375	397.4161987304688	994.8411254882812	731.99072265625	488.481201171875	1063.71533203125	820.943603515625	486.9747314453125	997.9884033203125	829.861083984375	505.8270263671875	671.632080078125	1477.41259765625	173.3092193603516	617.824951171875	1416.087280273438	123.9568023681641	584.443359375	1138.04345703125	73.08115386962891	680.2820434570312	1129.837524414062	75.94216156005859	564.647705078125	945.2328491210938	241.3678894042969	526.6624145507812	920.142578125	168.9927368164062	559.8518676757812	1071.0283203125	98.12564086914062	555.1654663085938	756.51123046875	285.9736938476562	528.4031372070312	831.220458984375	287.8095397949219	505.6719055175781	820.7499389648438	219.2559814453125	787.8078002929688	1681.5859375	240.6020812988281	753.4973754882812	1669.603759765625	464.3888854980469	670.1470336914062	1669.70947265625	408.6628723144531	873.2864990234375	1675.372924804688	351.1492919921875	985.2086791992188	987.4302978515625	296.85400390625	656.9044189453125	999.0175170898438	129.6094360351562	649.6759643554688	1044.7578125	233.5845947265625	897.4075317382812	1026.427124023438	366.3834838867188	910.9901733398438	509.2690734863281	366.4588623046875	944.09716796875	651.5896606445312	355.6838989257812	930.1237182617188	24.47420501708984	304.8262023925781	931.485595703125	279.6087951660156	335.5096740722656	773.050537109375	40.07323455810547	462.1119689941406	770.6954956054688	38.43704223632812	381.9615783691406	879.8328857421875	26.74056625366211	423.9259338378906	915.0342407226562	35.15397644042969	225.8065948486328	625.6004638671875	511.3175354003906	237.9323883056641	614.0213012695312	779.7896118164062	200.2081756591797	781.9690551757812	126.6189804077148	-22.49214744567871	652.9594116210938	400.2516479492188	210.9349822998047	712.3267211914062	44.17209625244141	155.6077423095703	778.6381225585938	56.62752151489258	135.3058624267578	706.4346313476562	77.55347442626953	43.03091430664062	860.864990234375	152.1244659423828	-36.32477188110352	
